<mxfile host="app.diagrams.net" agent="Mozilla/5.0 (Macintosh; Intel Mac OS X 10_15_7) AppleWebKit/537.36 (KHTML, like Gecko) Chrome/138.0.0.0 Safari/537.36" version="28.0.9">
  <diagram name="第 1 页" id="OyEJNLtnV2yPNALYGjFH">
    <mxGraphModel dx="1234" dy="-397" grid="1" gridSize="10" guides="1" tooltips="1" connect="1" arrows="1" fold="1" page="1" pageScale="1" pageWidth="827" pageHeight="1169" math="0" shadow="0">
      <root>
        <mxCell id="0" />
        <mxCell id="1" parent="0" />
        <mxCell id="A56YUQwipGqR7ceN1IC0-10" value="" style="group" vertex="1" connectable="0" parent="1">
          <mxGeometry x="220" y="1470" width="290" height="180" as="geometry" />
        </mxCell>
        <mxCell id="A56YUQwipGqR7ceN1IC0-9" value="" style="rounded=0;whiteSpace=wrap;html=1;fillColor=#f5f5f5;fontColor=#333333;strokeColor=#666666;" vertex="1" parent="A56YUQwipGqR7ceN1IC0-10">
          <mxGeometry width="290" height="180" as="geometry" />
        </mxCell>
        <mxCell id="A56YUQwipGqR7ceN1IC0-6" style="edgeStyle=orthogonalEdgeStyle;rounded=0;orthogonalLoop=1;jettySize=auto;html=1;exitX=1;exitY=0.5;exitDx=0;exitDy=0;entryX=0;entryY=0.5;entryDx=0;entryDy=0;shape=link;" edge="1" parent="A56YUQwipGqR7ceN1IC0-10" source="A56YUQwipGqR7ceN1IC0-4" target="A56YUQwipGqR7ceN1IC0-5">
          <mxGeometry relative="1" as="geometry" />
        </mxCell>
        <mxCell id="A56YUQwipGqR7ceN1IC0-4" value="Socket0" style="rounded=1;whiteSpace=wrap;html=1;fillColor=#d5e8d4;strokeColor=#82b366;" vertex="1" parent="A56YUQwipGqR7ceN1IC0-10">
          <mxGeometry x="10" y="10" width="110" height="100" as="geometry" />
        </mxCell>
        <mxCell id="A56YUQwipGqR7ceN1IC0-8" style="edgeStyle=orthogonalEdgeStyle;rounded=0;orthogonalLoop=1;jettySize=auto;html=1;exitX=0.5;exitY=1;exitDx=0;exitDy=0;entryX=0.5;entryY=0;entryDx=0;entryDy=0;strokeColor=default;endArrow=none;endFill=0;" edge="1" parent="A56YUQwipGqR7ceN1IC0-10" source="A56YUQwipGqR7ceN1IC0-5" target="A56YUQwipGqR7ceN1IC0-7">
          <mxGeometry relative="1" as="geometry">
            <Array as="points">
              <mxPoint x="220" y="130" />
              <mxPoint x="220" y="130" />
            </Array>
          </mxGeometry>
        </mxCell>
        <mxCell id="A56YUQwipGqR7ceN1IC0-5" value="Socket1" style="rounded=1;whiteSpace=wrap;html=1;fillColor=#d5e8d4;strokeColor=#82b366;" vertex="1" parent="A56YUQwipGqR7ceN1IC0-10">
          <mxGeometry x="165.39" y="10" width="110" height="100" as="geometry" />
        </mxCell>
        <mxCell id="A56YUQwipGqR7ceN1IC0-7" value="网卡设备" style="rounded=0;whiteSpace=wrap;html=1;" vertex="1" parent="A56YUQwipGqR7ceN1IC0-10">
          <mxGeometry x="172.39" y="140" width="96" height="30" as="geometry" />
        </mxCell>
      </root>
    </mxGraphModel>
  </diagram>
</mxfile>
